M48
; DRILL file {KiCad 5.1.0-rc2-unknown-036be7d~80~ubuntu16.04.1} date 28.04.2023 (пт) 14:18:10 EEST
; FORMAT={-:-/ absolute / inch / decimal}
; #@! TF.CreationDate,2023-04-28T14:18:10+03:00*
; #@! TF.GenerationSoftware,Kicad,Pcbnew,5.1.0-rc2-unknown-036be7d~80~ubuntu16.04.1
; #@! TF.FileFunction,Plated,1,4,PTH
FMAT,2
INCH
T1C0.0157
T2C0.0236
T3C0.0315
T4C0.0394
T5C0.0433
T6C0.0472
T7C0.1575
%
G90
G05
T1
X2.545Y-2.655
X2.56Y-2.7
X2.56Y-2.845
X2.565Y-2.995
X2.68Y-1.995
X2.68Y-2.325
X2.705Y-2.99
X2.705Y-3.11
X2.745Y-2.89
X2.745Y-3.09
X2.765Y-1.96
X2.765Y-2.285
X2.785Y-2.325
X2.79Y-1.715
X2.79Y-3.58
X2.825Y-2.005
X2.83Y-3.58
X2.83Y-3.62
X2.86Y-2.05
X2.8644Y-3.6188
X2.875Y-2.625
X2.875Y-2.84
X2.875Y-3.07
X2.88Y-4.33
X2.8948Y-4.0317
X2.8961Y-4.0758
X2.9012Y-3.6537
X2.9094Y-3.9118
X2.91Y-3.86
X2.9126Y-3.9663
X2.9139Y-3.8085
X2.915Y-4.0
X2.9291Y-4.0691
X2.9363Y-3.6903
X2.94Y-2.54
X2.94Y-2.655
X2.94Y-2.81
X2.94Y-2.925
X2.94Y-3.04
X2.94Y-3.155
X2.945Y-3.825
X2.945Y-3.885
X2.945Y-3.94
X2.945Y-3.775
X2.9808Y-4.525
X2.9808Y-4.665
X3.005Y-2.625
X3.005Y-2.84
X3.005Y-3.07
X3.0059Y-4.6872
X3.0303Y-4.6638
X3.0573Y-4.7068
X3.095Y-4.705
X3.0959Y-4.665
X3.105Y-3.75
X3.1108Y-4.4204
X3.13Y-4.525
X3.13Y-4.69
X3.1599Y-4.7642
X3.16Y-4.715
X3.19Y-4.745
X3.26Y-1.845
X3.26Y-2.495
X3.27Y-4.675
X3.275Y-3.425
X3.275Y-3.475
X3.275Y-3.625
X3.275Y-3.675
X3.305Y-4.675
X3.33Y-1.82
X3.355Y-1.845
X3.3752Y-4.1984
X3.379Y-3.525
X3.38Y-3.575
X3.38Y-3.725
X3.395Y-1.845
X3.395Y-2.725
X3.41Y-4.1231
X3.425Y-4.27
X3.435Y-4.025
X3.445Y-4.623
X3.475Y-2.145
X3.475Y-2.725
X3.475Y-4.27
X3.478Y-4.623
X3.4795Y-4.1291
X3.49Y-1.515
X3.4937Y-1.7917
X3.5049Y-4.1045
X3.51Y-2.05
X3.51Y-2.725
X3.5121Y-4.1373
X3.525Y-4.43
X3.5273Y-1.7917
X3.5332Y-3.0517
X3.54Y-1.675
X3.5463Y-4.1359
X3.55Y-1.515
X3.5527Y-1.82
X3.5544Y-4.1019
X3.5668Y-3.0517
X3.5697Y-4.16
X3.575Y-4.43
X3.5863Y-1.82
X3.5945Y-4.1335
X3.6Y-2.895
X3.6Y-3.11
X3.6087Y-1.7921
X3.61Y-1.515
X3.615Y-2.085
X3.615Y-2.745
X3.6253Y-4.1102
X3.6332Y-3.052
X3.6375Y-4.4425
X3.6423Y-1.7921
X3.6513Y-4.0819
X3.655Y-1.675
X3.6668Y-3.052
X3.6682Y-1.82
X3.67Y-1.515
X3.675Y-4.43
X3.675Y-4.2858
X3.68Y-2.12
X3.6846Y-4.6
X3.69Y-4.16
X3.7Y-2.895
X3.7Y-3.11
X3.7018Y-1.82
X3.72Y-2.12
X3.72Y-2.72
X3.72Y-3.27
X3.72Y-3.665
X3.725Y-4.43
X3.725Y-4.155
X3.725Y-4.28
X3.7332Y-3.0502
X3.7341Y-4.6009
X3.7341Y-4.5659
X3.7472Y-1.8706
X3.7561Y-4.8722
X3.7586Y-5.0042
X3.7668Y-3.0502
X3.7695Y-4.5645
X3.77Y-1.675
X3.77Y-3.375
X3.77Y-4.53
X3.775Y-4.32
X3.775Y-4.43
X3.7849Y-4.7871
X3.785Y-1.515
X3.785Y-4.855
X3.785Y-4.8206
X3.7862Y-4.7183
X3.7864Y-4.7535
X3.79Y-1.905
X3.8Y-2.895
X3.8Y-3.485
X3.8Y-4.9452
X3.805Y-4.525
X3.81Y-5.015
X3.82Y-2.09
X3.825Y-3.16
X3.825Y-3.46
X3.8332Y-3.052
X3.85Y-4.525
X3.855Y-3.435
X3.865Y-1.89
X3.8668Y-3.052
X3.875Y-4.28
X3.875Y-4.315
X3.88Y-3.41
X3.895Y-4.58
X3.895Y-4.67
X3.9Y-2.115
X3.9Y-2.7228
X3.91Y-3.385
X3.915Y-1.89
X3.925Y-4.315
X3.935Y-3.36
X3.94Y-4.82
X3.94Y-4.855
X3.9421Y-4.7779
X3.955Y-4.94
X3.96Y-3.27
X3.97Y-4.5474
X3.975Y-4.315
X3.9838Y-3.2938
X3.9975Y-1.8075
X4.0069Y-3.3181
X4.015Y-2.02
X4.02Y-4.9
X4.02Y-4.94
X4.025Y-4.315
X4.035Y-1.96
X4.0351Y-3.3363
X4.05Y-2.755
X4.06Y-3.51
X4.072Y-4.557
X4.0724Y-1.8926
X4.075Y-4.315
X4.085Y-3.535
X4.125Y-3.61
X4.125Y-4.315
X4.165Y-1.67
X4.165Y-1.87
X4.165Y-1.98
X4.165Y-3.88
X4.175Y-4.315
X4.19Y-1.695
X4.19Y-1.845
X4.19Y-3.61
X4.225Y-1.98
X4.225Y-3.825
X4.225Y-4.315
X4.25Y-3.5812
X4.275Y-2.69
X4.275Y-2.77
X4.275Y-2.885
X4.275Y-4.315
X4.2756Y-3.5595
X4.28Y-1.98
X4.3Y-2.6
X4.305Y-3.825
X4.375Y-1.98
X4.375Y-2.6
X4.375Y-2.77
X4.425Y-1.705
X4.425Y-1.795
X4.44Y-3.2699
X4.44Y-3.665
X4.45Y-1.73
X4.45Y-1.77
X4.475Y-3.27
X4.49Y-4.56
X4.49Y-2.96
X4.49Y-3.005
X4.49Y-4.67
X4.51Y-3.27
X4.525Y-2.77
X4.525Y-2.87
X4.525Y-2.93
X4.525Y-4.17
X4.525Y-4.33
X4.525Y-4.44
X4.545Y-3.27
X4.545Y-3.305
X4.575Y-2.77
X4.575Y-2.87
X4.575Y-2.93
X4.575Y-4.33
X4.575Y-4.44
X4.58Y-3.305
X4.58Y-3.34
X4.61Y-4.495
X4.615Y-3.34
X4.615Y-3.375
X4.625Y-2.915
X4.6376Y-4.6124
X4.65Y-3.375
X4.65Y-3.41
X4.675Y-2.915
X4.6832Y-4.44
X4.685Y-3.41
X4.685Y-3.445
X4.69Y-1.67
X4.69Y-1.87
X4.71Y-5.0
X4.715Y-1.695
X4.7165Y-1.9974
X4.7168Y-4.44
X4.72Y-3.445
X4.72Y-3.48
X4.73Y-2.075
X4.73Y-4.905
X4.7375Y-4.5725
X4.75Y-2.0
X4.755Y-3.48
X4.755Y-4.87
X4.775Y-2.6
X4.775Y-2.87
X4.7832Y-4.4409
X4.805Y-1.98
X4.8168Y-4.4409
X4.825Y-2.6
X4.825Y-2.87
X4.8494Y-3.4188
X4.865Y-2.11
X4.875Y-2.6
X4.875Y-2.87
X4.88Y-2.0
X4.89Y-3.415
X4.9182Y-4.4841
X4.925Y-2.6
X4.925Y-2.87
X4.9414Y-3.3988
X4.95Y-1.705
X4.95Y-1.795
X4.9518Y-4.4841
X4.97Y-4.68
X4.974Y-3.3428
X4.975Y-1.73
X4.975Y-1.77
X4.975Y-2.675
X4.975Y-2.87
X4.985Y-3.4053
X5.0024Y-4.5307
X5.0024Y-4.5643
X5.025Y-2.675
X5.025Y-2.87
X5.05Y-4.8
X5.065Y-2.18
X5.065Y-2.36
X5.07Y-4.4782
X5.07Y-4.5118
X5.075Y-2.6498
X5.075Y-2.93
X5.0865Y-3.3774
X5.1Y-2.625
X5.115Y-2.1
X5.12Y-3.38
X5.125Y-2.93
X5.125Y-4.6825
X5.13Y-2.365
X5.1377Y-4.5579
X5.16Y-3.38
X5.165Y-2.255
X5.165Y-2.3658
X5.165Y-2.505
X5.1675Y-4.8
X5.1713Y-4.5579
X5.205Y-2.3
X5.21Y-4.31
X5.235Y-2.12
X5.235Y-2.19
X5.235Y-2.3877
X5.235Y-2.5023
X5.2358Y-2.155
X5.245Y-2.6108
X5.245Y-2.7
X5.275Y-4.7
X5.29Y-2.095
X5.29Y-2.195
X5.2976Y-1.98
X5.2976Y-2.02
X5.3112Y-2.6077
X5.315Y-2.71
X5.325Y-4.32
X5.3251Y-2.5759
X5.34Y-1.94
X5.34Y-1.97
X5.3586Y-2.5763
X5.37Y-2.71
X5.37Y-4.32
X5.375Y-2.93
X5.3775Y-1.98
X5.3775Y-2.02
X5.3812Y-2.6066
X5.4037Y-2.7156
X5.4045Y-2.2407
X5.415Y-4.32
X5.4157Y-2.5951
X5.4163Y-2.5263
X5.425Y-2.93
X5.425Y-4.5332
X5.425Y-4.5668
X5.425Y-4.6332
X5.425Y-4.6668
X5.4372Y-2.7128
X5.438Y-2.2407
X5.4508Y-2.5882
X5.455Y-2.125
X5.463Y-2.3226
X5.47Y-2.706
X5.475Y-2.015
X5.475Y-2.93
X5.48Y-4.5
X5.487Y-2.5266
X5.49Y-4.32
X5.495Y-4.695
X5.495Y-4.83
X5.4966Y-2.3226
X5.5Y-1.99
X5.5029Y-2.2389
X5.5049Y-2.7954
X5.51Y-4.5
X5.5128Y-2.7092
X5.515Y-2.615
X5.515Y-3.39
X5.515Y-3.425
X5.525Y-2.015
X5.525Y-2.5275
X5.525Y-4.4
X5.53Y-4.85
X5.5365Y-2.2389
X5.5627Y-2.3238
X5.5725Y-2.6225
X5.575Y-2.19
X5.585Y-2.11
X5.5963Y-2.3238
X5.6099Y-2.4949
X5.616Y-3.3894
X5.62Y-3.425
X5.63Y-4.85
X5.6375Y-1.9825
X5.6375Y-2.0161
X5.64Y-4.58
X5.68Y-1.94
X5.68Y-1.97
X5.68Y-3.425
X5.684Y-3.3888
X5.7Y-2.405
X5.7225Y-1.9825
X5.7225Y-2.0161
X5.73Y-2.33
X5.74Y-4.5
X5.7523Y-2.6016
X5.768Y-2.425
X5.77Y-2.67
X5.77Y-2.71
X5.77Y-4.5
X5.78Y-3.39
X5.78Y-3.425
X5.81Y-3.67
X5.81Y-3.775
X5.815Y-2.1
X5.815Y-3.39
X5.8182Y-4.48
X5.82Y-1.87
X5.845Y-2.485
X5.845Y-2.535
X5.8518Y-4.48
X5.855Y-2.635
X5.86Y-2.135
X5.86Y-3.7
X5.86Y-3.79
X5.87Y-4.68
X5.9081Y-4.4919
X5.92Y-3.665
X5.92Y-3.715
X5.93Y-1.87
X5.9314Y-3.3036
X5.9319Y-4.4681
X5.95Y-4.8
X5.965Y-3.305
X5.975Y-2.5125
X5.9787Y-4.5579
X5.994Y-2.651
X5.9996Y-3.3046
X6.0123Y-4.5579
X6.025Y-4.68
X6.0331Y-4.5219
X6.0337Y-3.304
X6.035Y-3.64
X6.035Y-3.785
X6.04Y-2.1
X6.0569Y-4.4981
X6.0675Y-4.8
X6.0682Y-3.3036
X6.075Y-2.865
X6.075Y-2.9
X6.0864Y-3.0002
X6.1239Y-2.9862
X6.145Y-2.645
X6.145Y-2.865
X6.145Y-2.9
X6.15Y-3.43
X6.15Y-3.5342
X6.1503Y-2.9624
X6.155Y-4.625
X6.18Y-2.9387
X6.1888Y-2.0983
X6.21Y-2.2838
X6.21Y-2.135
X6.2102Y-2.17
X6.2145Y-2.5736
X6.215Y-2.505
X6.215Y-2.431
X6.215Y-2.47
X6.215Y-2.54
X6.2225Y-1.9839
X6.2225Y-2.0175
X6.245Y-4.325
X6.25Y-2.455
X6.25Y-2.66
X6.25Y-2.695
X6.255Y-4.625
X6.26Y-1.94
X6.26Y-1.97
X6.26Y-2.58
X6.265Y-2.35
X6.295Y-2.77
X6.295Y-4.325
X6.305Y-1.985
X6.305Y-2.0186
X6.305Y-4.435
X6.306Y-2.39
X6.335Y-2.285
X6.335Y-2.455
X6.335Y-2.58
X6.3446Y-2.705
X6.365Y-3.845
X6.365Y-4.645
X6.37Y-3.195
X6.38Y-2.885
X6.39Y-2.77
X6.395Y-4.76
X6.4Y-2.015
X6.41Y-2.695
X6.41Y-2.885
X6.425Y-1.99
X6.425Y-3.585
X6.425Y-3.685
X6.425Y-3.735
X6.425Y-3.785
X6.435Y-2.9392
X6.44Y-3.195
X6.45Y-2.015
X6.45Y-2.675
X6.475Y-2.1558
X6.4895Y-2.289
X6.49Y-2.6742
X6.49Y-3.025
X6.49Y-4.37
X6.4907Y-3.88
X6.5Y-2.22
X6.505Y-3.2238
X6.505Y-4.55
X6.505Y-4.585
X6.523Y-2.289
X6.5243Y-3.88
X6.525Y-4.37
X6.545Y-3.22
X6.5499Y-2.3755
X6.55Y-2.6742
X6.5525Y-1.9839
X6.5525Y-2.0175
X6.555Y-2.155
X6.57Y-4.41
X6.57Y-4.5
X6.575Y-4.225
X6.58Y-4.185
X6.5835Y-2.3755
X6.585Y-2.5799
X6.585Y-2.66
X6.585Y-2.855
X6.5879Y-2.2889
X6.59Y-1.94
X6.59Y-1.97
X6.595Y-4.82
X6.6049Y-2.7987
X6.61Y-3.575
X6.615Y-2.68
X6.6215Y-2.2889
X6.6375Y-1.9839
X6.6375Y-2.0175
X6.64Y-2.8
X6.6467Y-2.375
X6.65Y-2.9142
X6.6525Y-2.095
X6.66Y-4.44
X6.66Y-4.505
X6.66Y-4.545
X6.66Y-4.59
X6.6691Y-2.855
X6.675Y-2.25
X6.6754Y-2.1671
X6.68Y-2.7
X6.6802Y-2.375
X6.6875Y-4.72
X6.6899Y-2.9142
X6.69Y-2.545
X6.6988Y-2.7688
X6.7Y-4.4
X6.7205Y-2.0977
X6.74Y-3.885
X6.74Y-4.44
X6.745Y-1.87
X6.755Y-2.7
X6.76Y-2.795
X6.765Y-2.24
X6.765Y-3.66
X6.765Y-4.415
X6.7687Y-2.8298
X6.7725Y-2.6475
X6.79Y-3.53
X6.79Y-4.77
X6.815Y-2.68
X6.815Y-4.49
X6.8163Y-2.8298
X6.8332Y-3.915
X6.84Y-2.465
X6.845Y-2.145
X6.85Y-1.87
X6.85Y-2.375
X6.865Y-2.575
X6.8668Y-3.915
X6.88Y-2.465
X6.88Y-2.74
X6.8888Y-4.9882
X6.8888Y-5.0218
X6.895Y-4.415
X6.895Y-4.515
X6.9Y-2.61
X6.9Y-2.68
X6.93Y-2.725
X6.955Y-4.3
X6.955Y-4.485
X6.98Y-3.01
X6.985Y-2.195
X6.99Y-2.625
X6.99Y-3.205
X6.995Y-4.24
X7.01Y-4.66
X7.01Y-4.885
X7.015Y-2.815
X7.0198Y-2.86
X7.02Y-2.6
X7.025Y-3.085
X7.045Y-2.885
X7.05Y-2.73
X7.095Y-1.675
X7.095Y-2.755
X7.1226Y-3.17
X7.125Y-1.705
X7.125Y-2.835
X7.125Y-3.12
X7.135Y-2.925
X7.15Y-4.435
X7.15Y-4.86
X7.155Y-1.675
X7.16Y-3.095
X7.16Y-3.145
X7.165Y-2.73
X7.18Y-4.46
X7.18Y-4.605
X7.185Y-4.39
X7.205Y-4.785
X7.205Y-4.86
X7.22Y-3.205
X7.22Y-3.555
X7.22Y-2.145
X7.225Y-4.36
X7.24Y-4.785
X7.245Y-1.7356
X7.26Y-3.205
X7.29Y-1.735
X7.2907Y-5.02
X7.295Y-3.205
X7.32Y-2.695
X7.32Y-3.01
X7.32Y-3.235
X7.3243Y-5.02
X7.35Y-4.5482
X7.35Y-4.5818
X7.36Y-2.895
X7.4Y-3.785
X7.405Y-3.255
X7.4089Y-5.0
X7.41Y-3.205
X7.435Y-2.79
X7.435Y-2.88
X7.44Y-3.495
X7.4424Y-5.0
X7.465Y-3.9082
X7.465Y-3.9418
X7.47Y-3.28
X7.48Y-3.23
X7.49Y-2.925
X7.49Y-3.495
X7.51Y-2.83
X7.525Y-3.27
X7.54Y-3.495
X7.545Y-3.54
X7.555Y-3.94
X7.565Y-3.32
X7.59Y-3.97
X7.605Y-3.53
X7.61Y-2.925
X7.615Y-4.175
X7.635Y-3.965
X7.64Y-3.025
X7.645Y-3.09
X7.65Y-1.765
X7.665Y-4.165
X7.67Y-2.84
X7.68Y-3.95
X7.7Y-1.765
X7.705Y-4.135
X7.725Y-1.74
X7.73Y-3.92
X7.755Y-4.015
X7.755Y-4.065
X7.795Y-3.95
X7.8Y-4.07
X7.85Y-2.055
X7.87Y-1.75
X7.88Y-4.73
X7.885Y-2.085
X7.89Y-4.69
X7.925Y-5.115
X8.15Y-3.8
X8.15Y-3.895
X8.15Y-3.97
X8.15Y-4.23
X8.16Y-4.1
X8.205Y-2.125
X8.235Y-2.075
X8.265Y-2.025
X8.27Y-1.975
T2
X2.35Y-5.045
X2.355Y-1.46
X2.36Y-1.63
X2.36Y-1.82
X2.36Y-1.955
X2.36Y-2.155
X2.36Y-2.32
X2.365Y-2.45
X2.365Y-3.1
X2.365Y-3.225
X2.365Y-3.355
X2.365Y-4.8
X2.365Y-4.905
X2.445Y-1.55
X2.545Y-2.37
X2.55Y-3.57
X2.55Y-3.65
X2.55Y-3.72
X2.55Y-3.8
X2.55Y-4.0
X2.55Y-4.1
X2.55Y-4.2
X2.55Y-4.3
X2.55Y-4.4
X2.55Y-4.5
X2.55Y-4.655
X2.555Y-1.24
X2.56Y-3.935
X2.565Y-3.2
X2.565Y-3.875
X2.57Y-4.05
X2.57Y-4.15
X2.57Y-4.25
X2.57Y-4.35
X2.57Y-4.45
X2.575Y-4.545
X2.6Y-5.16
X2.62Y-3.4
X2.65Y-1.24
X2.65Y-4.89
X2.665Y-3.4
X2.675Y-3.2
X2.7Y-2.5
X2.7Y-5.16
X2.74Y-3.27
X2.745Y-2.5
X2.75Y-1.24
X2.75Y-4.965
X2.76Y-2.005
X2.79Y-4.695
X2.795Y-3.515
X2.8Y-1.3
X2.8Y-5.05
X2.8Y-5.16
X2.825Y-4.455
X2.825Y-4.6
X2.83Y-4.79
X2.85Y-1.24
X2.875Y-2.455
X2.875Y-3.27
X2.875Y-2.495
X2.9Y-5.16
X2.95Y-1.24
X2.95Y-3.25
X2.975Y-2.325
X2.975Y-2.425
X3.0Y-1.97
X3.0Y-2.05
X3.0Y-2.13
X3.0Y-5.16
X3.005Y-4.96
X3.025Y-3.25
X3.05Y-1.24
X3.09Y-3.695
X3.1Y-1.3
X3.1Y-5.16
X3.105Y-3.07
X3.105Y-3.125
X3.105Y-3.175
X3.105Y-3.225
X3.105Y-3.275
X3.105Y-3.325
X3.125Y-1.35
X3.125Y-1.58
X3.15Y-1.24
X3.15Y-2.325
X3.15Y-2.425
X3.175Y-1.97
X3.175Y-2.05
X3.175Y-2.13
X3.2Y-5.16
X3.25Y-1.24
X3.28Y-3.125
X3.28Y-3.175
X3.28Y-3.225
X3.28Y-3.275
X3.28Y-3.325
X3.3Y-5.16
X3.325Y-2.0
X3.325Y-2.1
X3.325Y-2.425
X3.385Y-3.125
X3.385Y-3.175
X3.385Y-3.225
X3.385Y-3.275
X3.385Y-3.325
X3.4Y-1.24
X3.4Y-1.4
X3.4Y-5.16
X3.425Y-2.87
X3.425Y-2.765
X3.425Y-3.825
X3.425Y-3.875
X3.435Y-2.425
X3.45Y-1.3
X3.45Y-2.0
X3.45Y-2.1
X3.475Y-2.765
X3.48Y-2.872
X3.5Y-1.24
X3.5Y-1.4
X3.5Y-3.225
X3.5Y-3.325
X3.5Y-5.16
X3.55Y-1.3
X3.55Y-3.45
X3.55Y-3.55
X3.55Y-3.65
X3.585Y-2.425
X3.6Y-1.24
X3.6Y-1.4
X3.6Y-3.325
X3.65Y-1.3
X3.65Y-3.55
X3.65Y-3.65
X3.65Y-5.165
X3.6875Y-2.425
X3.7Y-1.24
X3.7Y-1.4
X3.75Y-1.3
X3.75Y-5.165
X3.8Y-1.24
X3.8Y-1.4
X3.8Y-2.325
X3.8Y-2.425
X3.815Y-3.55
X3.815Y-3.615
X3.85Y-1.3
X3.85Y-5.165
X3.9Y-1.24
X3.9Y-1.4
X3.95Y-5.165
X3.955Y-1.78
X3.955Y-2.19
X3.975Y-2.35
X3.975Y-2.425
X4.0Y-1.24
X4.025Y-1.5
X4.025Y-1.575
X4.025Y-1.65
X4.025Y-1.725
X4.05Y-1.3
X4.05Y-1.4
X4.05Y-5.165
X4.075Y-4.675
X4.075Y-4.75
X4.075Y-5.025
X4.1Y-1.24
X4.11Y-2.35
X4.11Y-2.425
X4.15Y-4.675
X4.15Y-4.925
X4.15Y-5.025
X4.15Y-5.165
X4.2Y-1.24
X4.25Y-4.825
X4.25Y-4.925
X4.25Y-5.025
X4.25Y-5.165
X4.275Y-2.175
X4.275Y-2.25
X4.275Y-2.35
X4.275Y-2.425
X4.3Y-1.24
X4.35Y-2.175
X4.35Y-2.25
X4.35Y-2.35
X4.35Y-2.425
X4.35Y-3.85
X4.35Y-3.95
X4.35Y-4.05
X4.35Y-4.625
X4.35Y-4.725
X4.35Y-4.825
X4.35Y-4.925
X4.35Y-5.165
X4.4Y-1.24
X4.4Y-5.025
X4.45Y-5.165
X4.475Y-1.9
X4.475Y-1.975
X4.49Y-2.495
X4.5Y-1.24
X4.525Y-3.95
X4.525Y-4.05
X4.55Y-1.5
X4.55Y-1.575
X4.55Y-1.65
X4.55Y-1.725
X4.55Y-1.9
X4.55Y-1.975
X4.55Y-5.165
X4.6Y-1.24
X4.625Y-3.95
X4.625Y-4.05
X4.65Y-5.165
X4.7Y-1.24
X4.725Y-3.575
X4.725Y-3.675
X4.735Y-2.315
X4.735Y-2.365
X4.75Y-5.165
X4.785Y-2.315
X4.785Y-2.365
X4.8Y-1.24
X4.825Y-3.575
X4.825Y-3.675
X4.835Y-2.315
X4.835Y-2.365
X4.85Y-5.025
X4.85Y-5.165
X4.885Y-2.315
X4.885Y-2.365
X4.885Y-2.415
X4.885Y-2.465
X4.9Y-1.24
X4.925Y-3.575
X4.925Y-3.675
X4.935Y-2.415
X4.935Y-2.465
X4.95Y-5.025
X4.95Y-5.165
X4.985Y-2.415
X4.985Y-2.465
X5.0Y-1.24
X5.025Y-3.575
X5.025Y-3.675
X5.035Y-2.415
X5.035Y-2.465
X5.04Y-1.5
X5.04Y-1.575
X5.04Y-1.65
X5.04Y-1.725
X5.04Y-1.825
X5.04Y-1.925
X5.05Y-1.3
X5.05Y-5.025
X5.05Y-5.165
X5.125Y-3.575
X5.125Y-3.675
X5.15Y-5.025
X5.15Y-5.165
X5.225Y-3.575
X5.225Y-3.675
X5.25Y-5.165
X5.3Y-1.301
X5.3Y-1.6
X5.325Y-3.575
X5.325Y-3.675
X5.35Y-5.165
X5.4Y-1.301
X5.4Y-1.401
X5.4Y-1.501
X5.4Y-1.601
X5.425Y-3.575
X5.425Y-3.675
X5.45Y-5.165
X5.5Y-1.301
X5.5Y-1.401
X5.5Y-1.501
X5.5Y-1.601
X5.5Y-4.955
X5.55Y-5.165
X5.6Y-1.301
X5.6Y-1.401
X5.6Y-1.501
X5.6Y-1.601
X5.65Y-5.165
X5.7Y-1.301
X5.7Y-1.6
X5.75Y-5.025
X5.75Y-5.165
X5.785Y-2.8
X5.85Y-5.025
X5.85Y-5.165
X5.95Y-5.025
X5.95Y-5.165
X5.9552Y-2.1
X5.9552Y-2.175
X5.9552Y-2.25
X5.9552Y-2.3152
X5.9552Y-2.3698
X5.985Y-4.3
X6.0052Y-2.3152
X6.0052Y-2.3698
X6.05Y-5.025
X6.05Y-5.165
X6.0552Y-2.3152
X6.0552Y-2.3698
X6.1052Y-2.3152
X6.1052Y-2.3698
X6.15Y-5.025
X6.15Y-5.165
X6.225Y-1.3
X6.225Y-1.6
X6.25Y-5.165
X6.325Y-1.3
X6.325Y-1.4
X6.325Y-1.5
X6.325Y-1.6
X6.35Y-5.165
X6.424Y-1.301
X6.424Y-1.401
X6.424Y-1.501
X6.424Y-1.601
X6.45Y-5.05
X6.45Y-5.165
X6.525Y-1.3
X6.525Y-1.4
X6.525Y-1.5
X6.525Y-1.6
X6.55Y-5.05
X6.55Y-5.165
X6.625Y-1.3
X6.625Y-1.6
X6.65Y-5.165
X6.675Y-3.75
X6.675Y-3.875
X6.6875Y-4.94
X6.725Y-5.05
X6.825Y-5.05
X6.85Y-5.16
X6.875Y-3.65
X6.875Y-3.75
X6.95Y-1.24
X6.95Y-1.325
X6.95Y-5.16
X6.955Y-4.94
X6.975Y-1.85
X6.975Y-2.05
X7.05Y-1.24
X7.05Y-1.325
X7.05Y-1.425
X7.05Y-1.525
X7.05Y-1.625
X7.05Y-3.65
X7.05Y-3.75
X7.05Y-3.85
X7.05Y-4.2
X7.05Y-5.16
X7.15Y-1.24
X7.15Y-1.425
X7.15Y-1.85
X7.15Y-2.05
X7.15Y-2.25
X7.15Y-2.45
X7.15Y-2.65
X7.15Y-3.65
X7.15Y-3.75
X7.15Y-3.85
X7.15Y-4.2
X7.15Y-5.16
X7.25Y-1.24
X7.25Y-3.65
X7.25Y-3.75
X7.25Y-3.85
X7.25Y-4.2
X7.25Y-5.16
X7.255Y-1.31
X7.35Y-1.24
X7.35Y-3.65
X7.35Y-3.75
X7.35Y-3.85
X7.35Y-4.2
X7.35Y-4.3
X7.35Y-4.4
X7.35Y-4.5
X7.35Y-5.16
X7.375Y-2.05
X7.375Y-2.25
X7.375Y-2.45
X7.375Y-2.65
X7.45Y-5.16
X7.475Y-1.24
X7.475Y-1.31
X7.475Y-1.425
X7.475Y-1.525
X7.475Y-1.625
X7.475Y-2.05
X7.475Y-2.25
X7.475Y-2.45
X7.475Y-2.65
X7.5Y-3.65
X7.5Y-3.75
X7.5Y-3.85
X7.5Y-4.2
X7.5Y-4.3
X7.5Y-4.4
X7.5Y-4.5
X7.5Y-4.6
X7.55Y-1.24
X7.55Y-1.325
X7.55Y-4.875
X7.55Y-5.0
X7.55Y-5.16
X7.575Y-2.05
X7.615Y-2.455
X7.65Y-1.24
X7.65Y-1.325
X7.65Y-4.55
X7.65Y-4.65
X7.65Y-4.875
X7.65Y-5.0
X7.65Y-5.16
X7.7Y-2.05
X7.7Y-3.865
X7.75Y-1.24
X7.75Y-1.425
X7.75Y-5.0
X7.75Y-5.16
X7.78Y-4.62
X7.78Y-4.94
X7.85Y-1.24
X7.85Y-1.425
X7.85Y-1.525
X7.85Y-4.55
X7.85Y-5.16
X7.9Y-1.31
X7.905Y-4.3
X7.905Y-4.405
X7.95Y-1.24
X7.95Y-5.16
X7.985Y-4.545
X8.005Y-2.25
X8.035Y-5.16
X8.05Y-1.24
X8.05Y-4.75
X8.05Y-4.85
X8.065Y-1.895
X8.15Y-1.24
X8.15Y-4.75
X8.15Y-4.85
X8.15Y-5.16
X8.16Y-4.285
X8.165Y-3.1
X8.165Y-3.2
X8.165Y-3.3
X8.165Y-3.4
X8.165Y-3.5
X8.165Y-3.6
X8.165Y-3.7
X8.24Y-4.75
X8.25Y-1.24
X8.25Y-1.55
X8.26Y-4.85
X8.26Y-5.16
X8.305Y-2.25
X8.305Y-2.4
X8.36Y-1.35
X8.36Y-1.45
X8.36Y-1.55
X8.36Y-4.55
X8.36Y-4.65
X8.36Y-4.85
X6.6896Y-3.0096
X6.6896Y-3.0804
X6.7604Y-3.0096
X6.7604Y-3.0804
T4
X4.6872Y-1.3564
X4.825Y-1.3564
X4.9628Y-1.3564
X2.45Y-1.675
X2.45Y-1.775
X2.45Y-1.875
X8.31Y-4.735
X4.1622Y-1.35
X4.3Y-1.35
X4.4378Y-1.35
X2.45Y-2.025
X2.45Y-2.125
X2.45Y-2.225
T5
X5.235Y-1.295
X5.235Y-1.375
X5.275Y-1.725
X5.325Y-1.825
X5.375Y-1.725
X5.425Y-1.825
X5.475Y-1.725
X5.525Y-1.825
X5.575Y-1.725
X5.625Y-1.825
X5.675Y-1.725
X5.725Y-1.825
X5.765Y-1.295
X5.765Y-1.375
X6.725Y-3.045
X6.16Y-1.295
X6.16Y-1.375
X6.2Y-1.725
X6.25Y-1.825
X6.3Y-1.725
X6.35Y-1.825
X6.4Y-1.725
X6.45Y-1.825
X6.5Y-1.725
X6.55Y-1.825
X6.6Y-1.725
X6.65Y-1.825
X6.69Y-1.295
X6.69Y-1.375
T6
X5.5Y-2.425
X6.585Y-2.475
T7
X7.465Y-1.8052
T2
G00X5.698Y-4.7559
M15
G01X5.698Y-4.8307
M16
G05
G00X6.202Y-4.7559
M15
G01X6.202Y-4.8307
M16
G05
G00X2.7868Y-1.4109
M15
G01X2.7868Y-1.4975
M16
G05
G00X3.0093Y-1.5823
M15
G01X2.9148Y-1.5823
M16
G05
G00X3.0093Y-1.3461
M15
G01X2.9266Y-1.3461
M16
G05
G00X4.798Y-4.7559
M15
G01X4.798Y-4.8307
M16
G05
G00X5.302Y-4.7559
M15
G01X5.302Y-4.8307
M16
G05
T3
G00X3.3626Y-1.2732
M15
G01X3.3626Y-1.3126
M16
G05
G00X3.3626Y-1.5035
M15
G01X3.3626Y-1.5587
M16
G05
G00X3.9374Y-1.2732
M15
G01X3.9374Y-1.3126
M16
G05
G00X3.9374Y-1.5035
M15
G01X3.9374Y-1.5587
M16
G05
T4
G00X5.189Y-1.5852
M15
G01X5.189Y-1.6167
M16
G05
G00X5.811Y-1.5852
M15
G01X5.811Y-1.6167
M16
G05
G00X6.114Y-1.5852
M15
G01X6.114Y-1.6167
M16
G05
G00X6.736Y-1.5852
M15
G01X6.736Y-1.6167
M16
G05
T0
M30
