M48
; DRILL file {KiCad 5.1.0-rc2-unknown-036be7d~80~ubuntu16.04.1} date 28.04.2023 (пт) 14:18:10 EEST
; FORMAT={-:-/ absolute / inch / decimal}
; #@! TF.CreationDate,2023-04-28T14:18:10+03:00*
; #@! TF.GenerationSoftware,Kicad,Pcbnew,5.1.0-rc2-unknown-036be7d~80~ubuntu16.04.1
; #@! TF.FileFunction,NonPlated,1,4,NPTH
FMAT,2
INCH
T1C0.0236
T2C0.0276
T3C0.0394
T4C0.0433
T5C0.0472
T6C0.0630
T7C0.0669
T8C0.1299
T9C0.1299
%
G90
G05
T1
X3.6341Y-4.6467
X3.6341Y-5.1033
T2
X5.65Y-3.4
X5.65Y-3.8
X6.285Y-3.61
X6.285Y-3.76
X4.55Y-4.3
X5.45Y-4.3
X3.45Y-4.3
X4.35Y-4.3
X3.25Y-3.15
X3.25Y-4.05
X4.55Y-2.9
X5.45Y-2.9
X3.45Y-2.9
X4.35Y-2.9
T3
X4.005Y-5.018
X4.32Y-5.018
T4
X7.8587Y-4.8859
T5
X2.56Y-3.5
X2.56Y-4.6
X8.15Y-2.55
X8.15Y-4.35
X2.56Y-2.6
X2.56Y-2.9
T6
X7.0713Y-4.8859
T7
X7.775Y-1.315
X7.775Y-1.5512
X7.125Y-1.315
X7.125Y-1.5512
T8
X5.275Y-1.475
X5.725Y-1.475
X6.2Y-1.475
X6.65Y-1.475
T9
X5.65Y-2.9
X3.25Y-2.9
X8.2008Y-1.3898
X2.5079Y-1.3898
X3.25Y-4.3
X2.5079Y-5.0039
X5.65Y-4.3
X8.2008Y-5.0039
T0
M30
