G04 #@! TF.GenerationSoftware,KiCad,Pcbnew,5.1.0-rc2-unknown-036be7d~80~ubuntu16.04.1*
G04 #@! TF.CreationDate,2023-04-28T14:18:08+03:00*
G04 #@! TF.ProjectId,iMX8MPLUS-SOM-EVB_Rev_B,694d5838-4d50-44c5-9553-2d534f4d2d45,B*
G04 #@! TF.SameCoordinates,Original*
G04 #@! TF.FileFunction,Soldermask,Bot*
G04 #@! TF.FilePolarity,Negative*
%FSLAX46Y46*%
G04 Gerber Fmt 4.6, Leading zero omitted, Abs format (unit mm)*
G04 Created by KiCad (PCBNEW 5.1.0-rc2-unknown-036be7d~80~ubuntu16.04.1) date 2023-04-28 14:18:08*
%MOMM*%
%LPD*%
G04 APERTURE LIST*
%ADD10C,1.301600*%
%ADD11R,1.524000X1.524000*%
%ADD12C,1.801600*%
%ADD13O,1.401600X2.401600*%
%ADD14O,1.401600X2.801600*%
%ADD15C,0.801600*%
%ADD16C,3.401601*%
%ADD17C,0.701600*%
%ADD18C,3.401600*%
%ADD19O,2.101600X2.901600*%
%ADD20C,1.751600*%
%ADD21C,1.101600*%
%ADD22O,1.601600X3.801600*%
%ADD23O,3.701600X1.601600*%
%ADD24O,4.001600X1.601600*%
%ADD25C,1.879600*%
%ADD26R,1.879600X1.879600*%
%ADD27O,1.901600X3.801600*%
%ADD28C,2.641600*%
%ADD29C,1.701600*%
%ADD30C,1.201600*%
%ADD31C,5.901600*%
%ADD32C,0.254000*%
G04 APERTURE END LIST*
D10*
X207010000Y-64770000D03*
X207010000Y-110490000D03*
X65024000Y-66040000D03*
X65024000Y-73660000D03*
D11*
X139700000Y-61595000D03*
X167259000Y-62865000D03*
D12*
X180975000Y-39401000D03*
X180975000Y-33401000D03*
X197485000Y-39401000D03*
X197485000Y-33401000D03*
D13*
X100010000Y-32840000D03*
X85410000Y-32840000D03*
D14*
X85410000Y-38890000D03*
X100010000Y-38890000D03*
D15*
X87630000Y-73660000D03*
X110490000Y-73660000D03*
X115570000Y-73660000D03*
X138430000Y-73660000D03*
X115570000Y-109220000D03*
X138430000Y-109220000D03*
X87630000Y-109220000D03*
X110490000Y-109220000D03*
X82550000Y-80010000D03*
X82550000Y-102870000D03*
X143510000Y-86360000D03*
X143510000Y-96520000D03*
D16*
X82550000Y-109220000D03*
X143510000Y-109220000D03*
X143510000Y-73660000D03*
X82550000Y-73660000D03*
D17*
X92305000Y-129625000D03*
X92305000Y-118025000D03*
D18*
X168910000Y-37465000D03*
X157480000Y-37465000D03*
D19*
X171095000Y-40665000D03*
X155295000Y-40665000D03*
D20*
X169926000Y-32893000D03*
X169926000Y-34925000D03*
X156464000Y-32893000D03*
X156464000Y-34925000D03*
X168910000Y-46355000D03*
X167640000Y-43815000D03*
X166370000Y-46355000D03*
X165100000Y-43815000D03*
X163830000Y-46355000D03*
X162560000Y-43815000D03*
X161290000Y-46355000D03*
X160020000Y-43815000D03*
X158750000Y-46355000D03*
X157480000Y-43815000D03*
D21*
X109728000Y-127457200D03*
X101727000Y-127457200D03*
D22*
X70785000Y-36936000D03*
D23*
X75385000Y-34190000D03*
D24*
X75235000Y-40190000D03*
D25*
X62230000Y-56515000D03*
X62230000Y-53975000D03*
D26*
X62230000Y-51435000D03*
D27*
X134670000Y-121750000D03*
X121870000Y-121750000D03*
D16*
X63700000Y-127100000D03*
X63700000Y-35300000D03*
X208300000Y-35300000D03*
X208300000Y-127100000D03*
D18*
X145415000Y-37465000D03*
X133985000Y-37465000D03*
D19*
X147600000Y-40665000D03*
X131800000Y-40665000D03*
D20*
X146431000Y-32893000D03*
X146431000Y-34925000D03*
X132969000Y-32893000D03*
X132969000Y-34925000D03*
X145415000Y-46355000D03*
X144145000Y-43815000D03*
X142875000Y-46355000D03*
X141605000Y-43815000D03*
X140335000Y-46355000D03*
X139065000Y-43815000D03*
X137795000Y-46355000D03*
X136525000Y-43815000D03*
X135255000Y-46355000D03*
X133985000Y-43815000D03*
D28*
X112720000Y-34290000D03*
X105720000Y-34290000D03*
X109220000Y-34290000D03*
X126055000Y-34452001D03*
X119055000Y-34452001D03*
X122555000Y-34452001D03*
D26*
X62230000Y-42545000D03*
D25*
X62230000Y-45085000D03*
X62230000Y-47625000D03*
D15*
X159639000Y-95504000D03*
X159639000Y-91694000D03*
D29*
X170815000Y-77343000D03*
D27*
X144730000Y-121750000D03*
X157530000Y-121750000D03*
D26*
X211074000Y-120269000D03*
D10*
X65024000Y-116840000D03*
X65024000Y-88900000D03*
D30*
X199611000Y-124102999D03*
D29*
X179611000Y-124102999D03*
D31*
X189611000Y-45852999D03*
D32*
G36*
X213233000Y-131953000D02*
G01*
X211582000Y-131953000D01*
X211582000Y-123952000D01*
X213233000Y-123952000D01*
X213233000Y-131953000D01*
X213233000Y-131953000D01*
G37*
X213233000Y-131953000D02*
X211582000Y-131953000D01*
X211582000Y-123952000D01*
X213233000Y-123952000D01*
X213233000Y-131953000D01*
M02*
